<mxfile host="app.diagrams.net" modified="2023-07-12T05:21:16.891Z" agent="Mozilla/5.0 (Macintosh; Intel Mac OS X 10_15_7) AppleWebKit/537.36 (KHTML, like Gecko) Chrome/114.0.0.0 Safari/537.36" version="21.1.1" etag="ST_yKBmB62uarLqKiiCN" type="github">
  <diagram name="第 1 页" id="xaL02ySa6q5JVfjO3hHx">
    <mxGraphModel>
      <root>
        <mxCell id="0" />
        <mxCell id="1" parent="0" />
      </root>
    </mxGraphModel>
  </diagram>
</mxfile>
